<svg width="727" height="112" viewBox="0 0 727 112" fill="none" xmlns="http://www.w3.org/2000/svg">
<path d="M707.731 36.4297V86H690.856V22.6016H706.735L707.731 36.4297ZM726.832 22.1914L726.539 37.8359C725.719 37.7188 724.723 37.6211 723.551 37.543C722.418 37.4258 721.383 37.3672 720.446 37.3672C718.063 37.3672 715.992 37.6797 714.235 38.3047C712.516 38.8906 711.071 39.7695 709.899 40.9414C708.766 42.1133 707.906 43.5391 707.321 45.2188C706.774 46.8984 706.461 48.8125 706.383 50.9609L702.985 49.9062C702.985 45.8047 703.395 42.0352 704.215 38.5977C705.035 35.1211 706.227 32.0938 707.789 29.5156C709.391 26.9375 711.344 24.9453 713.649 23.5391C715.953 22.1328 718.59 21.4297 721.559 21.4297C722.496 21.4297 723.453 21.5078 724.43 21.6641C725.406 21.7812 726.207 21.957 726.832 22.1914Z" fill="black"/>
<path d="M651.631 87.1719C646.709 87.1719 642.295 86.3906 638.389 84.8281C634.482 83.2266 631.162 81.0195 628.428 78.207C625.732 75.3945 623.662 72.1328 622.217 68.4219C620.771 64.6719 620.049 60.6875 620.049 56.4688V54.125C620.049 49.3203 620.732 44.9258 622.1 40.9414C623.467 36.957 625.42 33.5 627.959 30.5703C630.537 27.6406 633.662 25.3945 637.334 23.832C641.006 22.2305 645.146 21.4297 649.756 21.4297C654.248 21.4297 658.232 22.1719 661.709 23.6562C665.186 25.1406 668.096 27.25 670.439 29.9844C672.822 32.7188 674.619 36 675.83 39.8281C677.041 43.6172 677.646 47.8359 677.646 52.4844V59.5156H627.256V48.2656H661.064V46.9766C661.064 44.6328 660.635 42.543 659.775 40.707C658.955 38.832 657.705 37.3477 656.025 36.2539C654.346 35.1602 652.197 34.6133 649.58 34.6133C647.354 34.6133 645.439 35.1016 643.838 36.0781C642.236 37.0547 640.928 38.4219 639.912 40.1797C638.936 41.9375 638.193 44.0078 637.686 46.3906C637.217 48.7344 636.982 51.3125 636.982 54.125V56.4688C636.982 59.0078 637.334 61.3516 638.037 63.5C638.779 65.6484 639.814 67.5039 641.143 69.0664C642.51 70.6289 644.15 71.8398 646.064 72.6992C648.018 73.5586 650.225 73.9883 652.686 73.9883C655.732 73.9883 658.564 73.4023 661.182 72.2305C663.838 71.0195 666.123 69.2031 668.037 66.7812L676.24 75.6875C674.912 77.6016 673.096 79.4375 670.791 81.1953C668.525 82.9531 665.791 84.3984 662.588 85.5312C659.385 86.625 655.732 87.1719 651.631 87.1719Z" fill="black"/>
<path d="M580.414 73.6953L594.476 22.6016H612.113L590.726 86H580.062L580.414 73.6953ZM570.746 22.6016L584.867 73.7539L585.16 86H574.437L553.05 22.6016H570.746Z" fill="black"/>
<path d="M485.759 54.9453V53.7148C485.759 49.0664 486.423 44.7891 487.751 40.8828C489.079 36.9375 491.013 33.5195 493.552 30.6289C496.091 27.7383 499.216 25.4922 502.927 23.8906C506.638 22.25 510.896 21.4297 515.7 21.4297C520.505 21.4297 524.782 22.25 528.532 23.8906C532.282 25.4922 535.427 27.7383 537.966 30.6289C540.544 33.5195 542.497 36.9375 543.825 40.8828C545.154 44.7891 545.818 49.0664 545.818 53.7148V54.9453C545.818 59.5547 545.154 63.832 543.825 67.7773C542.497 71.6836 540.544 75.1016 537.966 78.0312C535.427 80.9219 532.302 83.168 528.591 84.7695C524.88 86.3711 520.622 87.1719 515.818 87.1719C511.013 87.1719 506.736 86.3711 502.986 84.7695C499.275 83.168 496.13 80.9219 493.552 78.0312C491.013 75.1016 489.079 71.6836 487.751 67.7773C486.423 63.832 485.759 59.5547 485.759 54.9453ZM502.634 53.7148V54.9453C502.634 57.6016 502.868 60.082 503.337 62.3867C503.806 64.6914 504.548 66.7227 505.564 68.4805C506.618 70.1992 507.986 71.5469 509.665 72.5234C511.345 73.5 513.396 73.9883 515.818 73.9883C518.161 73.9883 520.173 73.5 521.853 72.5234C523.532 71.5469 524.88 70.1992 525.896 68.4805C526.911 66.7227 527.654 64.6914 528.122 62.3867C528.63 60.082 528.884 57.6016 528.884 54.9453V53.7148C528.884 51.1367 528.63 48.7148 528.122 46.4492C527.654 44.1445 526.892 42.1133 525.837 40.3555C524.822 38.5586 523.474 37.1523 521.794 36.1367C520.114 35.1211 518.083 34.6133 515.7 34.6133C513.318 34.6133 511.286 35.1211 509.607 36.1367C507.966 37.1523 506.618 38.5586 505.564 40.3555C504.548 42.1133 503.806 44.1445 503.337 46.4492C502.868 48.7148 502.634 51.1367 502.634 53.7148Z" fill="black"/>
<path d="M397.784 35.7266V86H380.85V22.6016H396.729L397.784 35.7266ZM395.44 52.0742H390.753C390.753 47.6602 391.28 43.5977 392.335 39.8867C393.428 36.1367 395.01 32.8945 397.081 30.1602C399.19 27.3867 401.788 25.2383 404.874 23.7148C407.96 22.1914 411.534 21.4297 415.596 21.4297C418.409 21.4297 420.987 21.8594 423.331 22.7188C425.675 23.5391 427.686 24.8477 429.366 26.6445C431.085 28.4023 432.413 30.707 433.35 33.5586C434.288 36.3711 434.757 39.75 434.757 43.6953V86H417.882V45.5703C417.882 42.6797 417.491 40.4531 416.71 38.8906C415.928 37.3281 414.815 36.2344 413.37 35.6094C411.964 34.9844 410.264 34.6719 408.272 34.6719C406.085 34.6719 404.171 35.1211 402.53 36.0195C400.928 36.918 399.6 38.168 398.546 39.7695C397.491 41.332 396.71 43.168 396.202 45.2773C395.694 47.3867 395.44 49.6523 395.44 52.0742ZM433.175 50.1406L427.139 50.9023C427.139 46.7617 427.647 42.9141 428.663 39.3594C429.718 35.8047 431.26 32.6797 433.292 29.9844C435.362 27.2891 437.921 25.1992 440.968 23.7148C444.014 22.1914 447.53 21.4297 451.514 21.4297C454.561 21.4297 457.335 21.8789 459.835 22.7773C462.335 23.6367 464.464 25.0234 466.221 26.9375C468.018 28.8125 469.385 31.2734 470.323 34.3203C471.3 37.3672 471.788 41.0977 471.788 45.5117V86H454.854V45.5117C454.854 42.582 454.464 40.3555 453.682 38.832C452.94 37.2695 451.846 36.1953 450.401 35.6094C448.995 34.9844 447.315 34.6719 445.362 34.6719C443.331 34.6719 441.553 35.082 440.03 35.9023C438.507 36.6836 437.237 37.7773 436.221 39.1836C435.206 40.5898 434.444 42.2305 433.936 44.1055C433.428 45.9414 433.175 47.9531 433.175 50.1406Z" fill="black"/>
<path d="M341.684 87.1719C336.762 87.1719 332.348 86.3906 328.442 84.8281C324.535 83.2266 321.215 81.0195 318.481 78.207C315.785 75.3945 313.715 72.1328 312.27 68.4219C310.824 64.6719 310.102 60.6875 310.102 56.4688V54.125C310.102 49.3203 310.785 44.9258 312.153 40.9414C313.52 36.957 315.473 33.5 318.012 30.5703C320.59 27.6406 323.715 25.3945 327.387 23.832C331.059 22.2305 335.199 21.4297 339.809 21.4297C344.301 21.4297 348.285 22.1719 351.762 23.6562C355.239 25.1406 358.149 27.25 360.492 29.9844C362.875 32.7188 364.672 36 365.883 39.8281C367.094 43.6172 367.699 47.8359 367.699 52.4844V59.5156H317.309V48.2656H351.117V46.9766C351.117 44.6328 350.688 42.543 349.828 40.707C349.008 38.832 347.758 37.3477 346.078 36.2539C344.399 35.1602 342.25 34.6133 339.633 34.6133C337.406 34.6133 335.492 35.1016 333.891 36.0781C332.289 37.0547 330.981 38.4219 329.965 40.1797C328.989 41.9375 328.246 44.0078 327.739 46.3906C327.27 48.7344 327.035 51.3125 327.035 54.125V56.4688C327.035 59.0078 327.387 61.3516 328.09 63.5C328.832 65.6484 329.867 67.5039 331.196 69.0664C332.563 70.6289 334.203 71.8398 336.117 72.6992C338.071 73.5586 340.278 73.9883 342.739 73.9883C345.785 73.9883 348.617 73.4023 351.235 72.2305C353.891 71.0195 356.176 69.2031 358.09 66.7812L366.293 75.6875C364.965 77.6016 363.149 79.4375 360.844 81.1953C358.578 82.9531 355.844 84.3984 352.641 85.5312C349.438 86.625 345.785 87.1719 341.684 87.1719Z" fill="black"/>
<path d="M233.084 0.6875H264.9C271.424 0.6875 277.029 1.66406 281.717 3.61719C286.443 5.57031 290.076 8.46094 292.615 12.2891C295.154 16.1172 296.424 20.8242 296.424 26.4102C296.424 30.9805 295.643 34.9062 294.08 38.1875C292.557 41.4297 290.389 44.1445 287.576 46.332C284.803 48.4805 281.541 50.1992 277.791 51.4883L272.225 54.418H244.568L244.451 40.707H265.018C268.104 40.707 270.662 40.1602 272.693 39.0664C274.725 37.9727 276.248 36.4492 277.264 34.4961C278.318 32.543 278.846 30.2773 278.846 27.6992C278.846 24.9648 278.338 22.6016 277.322 20.6094C276.307 18.6172 274.764 17.0938 272.693 16.0391C270.623 14.9844 268.025 14.457 264.9 14.457H250.662V86H233.084V0.6875ZM280.779 86L261.326 47.9727L279.9 47.8555L299.588 85.1797V86H280.779Z" fill="black"/>
<path d="M186.769 78.8516L203.585 22.6016H221.691L196.203 95.5508C195.656 97.1523 194.914 98.8711 193.976 100.707C193.078 102.543 191.847 104.281 190.285 105.922C188.761 107.602 186.828 108.969 184.484 110.023C182.179 111.078 179.347 111.605 175.988 111.605C174.386 111.605 173.078 111.508 172.062 111.312C171.046 111.117 169.835 110.844 168.429 110.492V98.1289C168.859 98.1289 169.308 98.1289 169.777 98.1289C170.246 98.168 170.695 98.1875 171.125 98.1875C173.351 98.1875 175.167 97.9336 176.574 97.4258C177.98 96.918 179.113 96.1367 179.972 95.082C180.832 94.0664 181.515 92.7383 182.023 91.0977L186.769 78.8516ZM179.738 22.6016L193.507 68.5391L195.91 86.4102L184.425 87.6406L161.632 22.6016H179.738Z" fill="black"/>
<path d="M113.618 36.1367V86H96.7434V22.6016H112.564L113.618 36.1367ZM111.157 52.0742H106.587C106.587 47.3867 107.193 43.168 108.404 39.418C109.615 35.6289 111.314 32.4062 113.501 29.75C115.689 27.0547 118.286 25.0039 121.294 23.5977C124.341 22.1523 127.74 21.4297 131.49 21.4297C134.458 21.4297 137.173 21.8594 139.634 22.7188C142.095 23.5781 144.204 24.9453 145.962 26.8203C147.759 28.6953 149.126 31.1758 150.064 34.2617C151.04 37.3477 151.529 41.1172 151.529 45.5703V86H134.536V45.5117C134.536 42.6992 134.146 40.5117 133.365 38.9492C132.583 37.3867 131.431 36.293 129.907 35.668C128.423 35.0039 126.587 34.6719 124.4 34.6719C122.134 34.6719 120.161 35.1211 118.482 36.0195C116.841 36.918 115.474 38.168 114.38 39.7695C113.325 41.332 112.525 43.168 111.978 45.2773C111.431 47.3867 111.157 49.6523 111.157 52.0742Z" fill="black"/>
<path d="M23.8528 69.2727L1.18237 77.2727L30.6284 0H58.7108L88.1568 77.2727L65.4864 69.2727L59.1824 55.5L44.9892 21.9886H44.3074L23.8528 69.2727Z" fill="black"/>
<path d="M6.28243 82.9911L9.84317e-05 86.0785L6.17498 98.6432L12.4573 95.5558L9.36987 89.2734L6.28243 82.9911ZM61.0428 93.329C64.6889 94.6142 68.6865 92.7003 69.9717 89.0542C71.257 85.4081 69.3431 81.4105 65.697 80.1252L63.3699 86.7271L61.0428 93.329ZM9.36987 89.2734L12.4573 95.5558C20.879 91.417 37.4366 85.008 61.0428 93.329L63.3699 86.7271L65.697 80.1252C37.2668 70.1038 16.6361 77.9028 6.28243 82.9911L9.36987 89.2734Z" fill="#FF007A"/>
<path d="M81.96 81.6135L82.6783 89.3631L89.0287 93.8623L81.2792 94.5805L76.7799 100.931L76.0617 93.1814L69.7112 88.6822L77.4608 87.964L81.96 81.6135Z" fill="#FF007A"/>
</svg>
