<svg width="170" height="32" viewBox="0 0 170 32" fill="none" xmlns="http://www.w3.org/2000/svg">
<g clip-path="url(#clip0_52_68)">
<path d="M17.3014 18.9366C17.1823 18.8069 14.5237 16.0068 14.5237 16.0068C14.0504 16.5148 10.1367 20.7514 10.1031 20.7514C9.86959 21.0074 9.68418 21.3024 9.5295 21.6194C9.21326 22.3494 9.10552 23.1718 9.35981 23.9434C9.37123 23.9735 9.59533 24.5833 9.70181 24.8012C9.93799 25.2799 10.722 26.8882 10.7883 27.034C10.954 27.4027 11.5393 28.6066 11.6525 28.8472C12.0077 29.6056 12.351 30.5359 12.998 31.0693C13.031 31.0936 13.5311 31.4908 13.797 31.5617C13.8523 31.57 14.526 31.8773 15.9241 31.8726C16.1058 31.8719 17.1824 31.8728 17.5391 31.8722C17.9575 31.8714 18.3761 31.8712 18.7945 31.8714C19.5407 31.8716 20.2867 31.871 21.0327 31.8701C21.7585 31.8689 22.4844 31.8684 23.2103 31.8687C24.005 31.8689 23.9913 31.8312 24.1728 31.5005C24.2411 31.3075 24.3636 30.8428 24.1231 30.4873C23.9976 30.3019 23.8139 30.0905 23.3853 30.0821C22.5019 30.0646 21.5504 30.0854 21.0327 30.0821C21.0948 29.9243 24.308 26.5547 24.3541 26.4928C23.9971 26.1056 20.4247 22.2459 20.3255 22.1392C20.0392 21.8303 17.3814 19.0235 17.3014 18.9366Z" fill="url(#paint0_linear_52_68)"/>
<path d="M24.8741 8.04467C25.2929 8.38334 26.8077 10.0362 26.9705 10.2123C27.4334 10.7128 30.7444 14.2849 30.8519 14.3944C31.4913 15.0705 31.8813 15.8775 31.9105 16.8514C31.8785 17.6358 31.6046 18.3189 31.1499 18.9293C31.1165 18.9293 29.3921 20.7875 29.3748 20.8433C29.3414 20.8433 25.8872 24.5432 25.5712 24.8895C25.2918 24.6388 24.0732 23.3357 23.9578 23.239C23.9213 23.2063 22.198 21.3443 22.0459 21.2429C21.9705 21.1713 19.1972 18.1382 19.1593 18.0982C19.0797 17.9996 15.8656 14.5043 15.7832 14.3908C15.8332 14.3638 18.7065 11.1847 18.8103 11.0746C19.1122 10.7544 20.3157 9.47691 20.3348 9.4287C20.4076 9.28757 21.8585 7.86086 22.5282 7.61052C23.3077 7.38569 24.2192 7.55048 24.8741 8.04467Z" fill="url(#paint1_linear_52_68)"/>
<path d="M6.69616 0.608445C6.94289 0.913463 7.06093 1.20245 7.07359 1.60619C7.00659 2.01216 6.90435 2.29558 6.59526 2.56022C6.55826 2.59564 6.52127 2.63105 6.48315 2.66755C6.1255 2.90253 5.73895 2.89438 5.33217 2.90208C4.48353 2.93317 3.68806 3.13662 3.0788 3.8084C2.64902 4.38526 2.54949 4.98703 2.52321 5.70457C2.49786 6.18892 2.3516 6.50686 2.02499 6.84538C1.69533 7.06775 1.3594 7.13994 0.974907 7.07593C0.602262 6.93735 0.381803 6.73171 0.190151 6.36787C-0.153382 5.58807 0.026408 4.55158 0.274932 3.76716C0.767785 2.32882 1.75996 1.27837 3.05311 0.637016C4.0242 0.187326 5.83453 -0.180208 6.69616 0.608445Z" fill="#8B5CF6" fill-opacity="0.8"/>
<path d="M31.5379 6.11913C31.2404 6.34976 30.9568 6.46267 30.558 6.48145C30.1557 6.42758 29.874 6.33936 29.6075 6.06202C29.5719 6.02889 29.5363 5.99576 29.4996 5.96163C29.2616 5.63945 29.2634 5.28655 29.2492 4.91546C29.2048 4.14155 28.9909 3.41926 28.3172 2.87529C27.7402 2.49341 27.1439 2.41336 26.4344 2.40223C25.9553 2.38777 25.6388 2.25999 25.299 1.96799C25.0739 1.67113 24.9971 1.36586 25.0542 1.01383C25.1851 0.671273 25.3847 0.4664 25.7412 0.284981C26.5062 -0.0424953 27.5334 0.103011 28.3126 0.315759C29.742 0.739764 30.7961 1.62639 31.4508 2.79503C31.9108 3.67318 32.3033 5.31869 31.5379 6.11913Z" fill="#8B5CF6" fill-opacity="0.8"/>
<path d="M1.89045 25.7388C2.17359 25.9194 2.34849 26.148 2.46968 26.4742C2.50179 26.6983 2.5229 26.9193 2.54062 27.1449C2.59134 27.7092 2.78457 28.1792 3.17596 28.5731C3.59532 28.9166 3.99054 29.0293 4.50631 29.1097C4.96104 29.1821 5.29725 29.2589 5.61104 29.6384C5.82694 29.9566 5.89817 30.2819 5.87776 30.6719C5.79317 31.0911 5.60218 31.3847 5.27985 31.6419C4.62972 32.0023 3.72454 31.7985 3.06011 31.5822C2.47259 31.3543 1.95347 31.0511 1.50134 30.5892C1.38783 30.4695 1.38783 30.4695 1.21407 30.3539C0.472579 29.4884 0.0589876 28.3621 0.0518779 27.2017C0.0499125 27.1448 0.0479471 27.0879 0.0459222 27.0294C0.0428228 26.6197 0.124186 26.3425 0.376991 26.029C0.80485 25.6278 1.35181 25.4955 1.89045 25.7388Z" fill="#8B5CF6" fill-opacity="0.8"/>
<path d="M10.4504 0.237311C10.4929 0.236865 10.5355 0.236419 10.5793 0.23596C10.7187 0.234848 10.858 0.235579 10.9974 0.236441C11.095 0.23627 11.1926 0.236023 11.2902 0.235704C11.4942 0.23533 11.6982 0.23587 11.9023 0.237062C12.1631 0.238512 12.4238 0.237677 12.6845 0.236153C12.8859 0.235232 13.0873 0.235528 13.2887 0.236186C13.3848 0.236355 13.4809 0.23615 13.577 0.235555C13.7117 0.234905 13.8462 0.2359 13.9808 0.237311C14.0573 0.237513 14.1337 0.237716 14.2124 0.237924C14.5428 0.287456 14.7904 0.441254 15.0146 0.70749C15.2421 1.05318 15.3102 1.37734 15.2649 1.79667C15.1952 2.18073 15.023 2.40241 14.7523 2.65877C14.3143 2.93633 13.8088 2.89558 13.3164 2.89255C13.1999 2.89251 13.1999 2.89251 13.081 2.89246C12.9172 2.89237 12.7534 2.89184 12.5897 2.89098C12.3811 2.8899 12.1726 2.88966 11.9641 2.88971C11.7634 2.88969 11.5627 2.88912 11.362 2.88858C11.2878 2.88851 11.2136 2.88844 11.1371 2.88836C9.91451 2.8813 9.91451 2.8813 9.46522 2.49628C9.21959 2.17238 9.15039 1.75994 9.16627 1.35146C9.25008 0.932708 9.43766 0.628626 9.77454 0.390546C10.0016 0.256616 10.1892 0.238003 10.4504 0.237311Z" fill="#8B5CF6" fill-opacity="0.8"/>
<path d="M18.6359 0.244814C18.6999 0.244178 19.045 0.242588 19.185 0.242906C19.2828 0.242652 19.3807 0.242334 19.4785 0.241952C19.6831 0.24138 19.8878 0.241507 20.0924 0.242143C20.3542 0.242906 20.6159 0.241571 20.8777 0.239726C21.0796 0.238581 21.2815 0.238581 21.4834 0.238963C21.5799 0.238963 21.6764 0.238581 21.7729 0.237755C21.908 0.236801 22.043 0.2375 22.178 0.238581C22.2931 0.238645 22.2931 0.238645 22.4106 0.238645C22.8175 0.300784 23.0428 0.574398 23.2769 0.906525C23.4586 1.22205 23.4314 1.56633 23.3965 1.92415C23.2969 2.27002 23.034 2.57638 22.7388 2.75097C22.3774 2.86501 22.0324 2.89528 21.6574 2.88835C21.6082 2.88803 21.559 2.88771 21.5082 2.88733C21.3529 2.88625 21.1976 2.88428 21.0422 2.88218C20.8857 2.8804 20.7291 2.87881 20.5725 2.8776C20.4755 2.87684 20.3785 2.87576 20.2816 2.87423C20.0876 2.87239 19.6221 2.90978 19.5398 2.89484C19.3188 2.85642 19.1723 2.88587 18.9496 2.90603C18.8379 2.9157 18.4386 2.86329 18.3594 2.86933C18.0819 2.85292 17.7795 2.71815 17.5872 2.4986C17.5259 2.42031 17.3197 2.00982 17.3082 1.94094C17.2708 1.59399 17.3226 1.11825 17.5061 0.831475C17.8293 0.416284 18.12 0.247104 18.6359 0.244814Z" fill="#8B5CF6" fill-opacity="0.8"/>
<path d="M1.8344 9.08731C2.12881 9.26832 2.48606 10.0726 2.48798 10.3087C2.48851 10.3518 2.48899 10.395 2.48953 10.4395C2.49097 10.5819 2.49144 10.7244 2.49186 10.8669C2.4924 10.9664 2.49294 11.066 2.49348 11.1654C2.49449 11.3741 2.49497 11.5828 2.49515 11.7915C2.49545 12.0576 2.49772 12.3237 2.50041 12.5899C2.50221 12.7956 2.50262 13.0012 2.50268 13.2069C2.50292 13.305 2.5037 13.403 2.50496 13.5011C2.51267 14.1549 2.46047 14.6191 2.03996 15.1176C1.72337 15.3046 1.37766 15.3862 1.01975 15.3044C0.613289 15.1459 0.325157 14.9217 0.132391 14.5027C0.0669195 14.2904 0.0620166 14.1122 0.0606414 13.8888C0.0602827 13.846 0.0598641 13.8032 0.0594456 13.7592C0.0583095 13.6185 0.0580704 13.4779 0.0579508 13.3372C0.0575921 13.2389 0.0571735 13.1406 0.056755 13.0423C0.0560375 12.8365 0.0557984 12.6306 0.0558581 12.4248C0.0559179 12.1618 0.0542439 11.8989 0.052211 11.6359C0.0508956 11.4329 0.0506563 11.23 0.0507161 11.027C0.0505367 10.93 0.0499987 10.8332 0.0491018 10.7362C0.0440794 10.1592 0.0419269 9.74533 0.425785 9.30445C0.460284 9.27475 0.494724 9.24511 0.53024 9.21451C0.582138 9.16853 0.582138 9.16853 0.635053 9.12159C0.965518 8.87857 1.48169 8.91508 1.8344 9.08731Z" fill="#8B5CF6" fill-opacity="0.8"/>
<path d="M2.17072 17.6337C2.17072 17.6757 2.49228 18.2605 2.49288 18.5943C2.49318 18.6378 2.49377 19.3537 2.49401 19.4535C2.49431 19.6623 2.49389 19.8709 2.49306 20.0797C2.49204 20.3465 2.49264 20.6134 2.49371 20.8803C2.49437 21.0862 2.49413 21.2922 2.49365 21.498C2.49353 21.5964 2.49389 22.0687 2.49288 22.2064C2.49276 22.2846 2.49258 22.3628 2.49246 22.4434C2.4582 22.7665 2.33563 23.0192 2.11841 23.2465C2.09018 23.277 2.06196 23.3075 2.0329 23.3389C1.71637 23.5965 1.35589 23.5941 0.974904 23.5486C0.619626 23.4364 0.405933 23.232 0.197621 22.9126C0.0790554 22.6561 0.0617759 22.4434 0.0587864 22.1589C0.0578895 22.0951 0.0544216 21.7498 0.0537639 21.6098C0.0534052 21.5617 0.0498177 20.9546 0.0493393 20.6999C0.0486816 20.4381 0.0458116 20.1763 0.0424035 19.9145C0.0401315 19.7121 0.0395336 19.5096 0.0393542 19.3072C0.0389955 19.2107 0.0380389 19.1143 0.0364245 19.0178C0.0287115 18.5071 0.0350492 18.0946 0.339266 17.675C0.853169 17.1221 1.62513 17.1449 2.17072 17.6337Z" fill="#8B5CF6" fill-opacity="0.8"/>
<path d="M8.71396 29.3698C8.75716 29.3698 9.88043 29.3619 9.92266 29.3608C10.2179 29.3625 10.4895 29.3969 10.742 29.6389C10.9022 29.9088 11.1511 30.2714 11.1839 30.6312C11.1514 30.9753 10.9146 31.2229 10.7602 31.4772C10.4843 31.75 9.66324 31.749 9.5568 31.7704C9.40204 31.7979 8.68657 31.7384 8.47525 31.7457C7.86652 31.758 7.66165 31.8023 7.44729 31.4919C7.26625 31.2175 7.06725 30.9917 7.05834 30.6033C7.06525 30.2626 7.3096 30.0522 7.45649 29.7963C7.77448 29.3652 8.30809 29.3726 8.71396 29.3698Z" fill="#8B5CF6" fill-opacity="0.8"/>
<path d="M31.2867 8.17713C31.5493 8.285 31.7411 8.44502 31.8529 8.64575C31.8673 8.76392 31.8673 8.76392 31.8688 8.90461C31.8694 8.93037 31.87 8.95612 31.8705 8.98239C31.8716 9.0673 31.8721 9.15208 31.8726 9.23686C31.8732 9.29601 31.8737 9.35554 31.8742 9.41456C31.8748 9.53916 31.8752 9.66318 31.8752 9.7872C31.8758 9.94614 31.8779 10.1044 31.8801 10.2629C31.8817 10.3853 31.8822 10.5076 31.8822 10.6301C31.8822 10.6886 31.8833 10.7471 31.8843 10.8051C31.8913 11.1949 31.8444 11.4714 31.4699 11.7677C31.1882 11.8794 30.8798 11.9277 30.5613 11.8788C30.1991 11.7849 29.9424 11.6512 29.7709 11.4015C29.7123 11.2754 29.7081 11.1691 29.7069 11.0365C29.7064 11.0107 29.7059 10.9855 29.7059 10.9592C29.7048 10.8754 29.7048 10.7917 29.7043 10.708C29.7043 10.6495 29.7038 10.5909 29.7033 10.5324C29.7027 10.41 29.7027 10.2871 29.7027 10.1646C29.7027 10.0078 29.7011 9.85163 29.6995 9.69479C29.6979 9.57401 29.6979 9.45323 29.6979 9.33245C29.6979 9.27451 29.6974 9.21702 29.6963 9.15908C29.692 8.81544 29.6899 8.56904 30.0318 8.3065C30.0628 8.28875 30.0937 8.27107 30.1251 8.25282C30.1714 8.2254 30.1714 8.2254 30.2183 8.19755C30.5128 8.05311 30.973 8.0746 31.2867 8.17713Z" fill="#8B5CF6" fill-opacity="0.8"/>
<path d="M27.3013 30.0669C27.3578 30.0669 28.8316 30.0612 28.887 30.0605C29.2743 30.0612 29.5823 30.1065 29.9134 30.2847C30.1239 30.4839 30.2141 30.7024 30.2572 30.9674C30.2147 31.2209 30.1161 31.4131 29.9134 31.6009C29.5515 31.802 28.5466 31.8206 28.407 31.8359C28.204 31.8563 27.2652 31.8129 26.9881 31.818C26.1892 31.8269 25.9595 31.8825 25.6783 31.6539C25.4408 31.4514 25.2465 31.3978 25.2348 31.1117C25.244 30.8607 25.3352 30.528 25.5277 30.3396C25.945 30.0216 26.7685 30.0689 27.3013 30.0669Z" fill="#8B5CF6" fill-opacity="0.8"/>
</g>
<path d="M40.6252 23L45.6052 8.4H50.2452L55.3652 23H52.4452L48.1052 10.34L49.1252 10.78H46.6252L47.6652 10.34L43.4652 23H40.6252ZM44.1052 19.12L45.0052 16.72H50.9252L51.8052 19.12H44.1052ZM57.114 23V12.14H59.314V16.8H59.114C59.114 15.6933 59.2607 14.7733 59.554 14.04C59.8473 13.2933 60.2807 12.7333 60.854 12.36C61.4407 11.9867 62.1673 11.8 63.034 11.8H63.154C64.4473 11.8 65.4273 12.22 66.094 13.06C66.7607 13.8867 67.094 15.1267 67.094 16.78V23H64.314V16.54C64.314 15.8733 64.1207 15.3333 63.734 14.92C63.3607 14.5067 62.8407 14.3 62.174 14.3C61.494 14.3 60.9407 14.5133 60.514 14.94C60.1007 15.3533 59.894 15.9133 59.894 16.62V23H57.114ZM69.4846 27.28V24.9H71.5246C71.9113 24.9 72.2313 24.8467 72.4846 24.74C72.7513 24.6467 72.9713 24.4867 73.1446 24.26C73.3179 24.0467 73.4513 23.7467 73.5446 23.36L76.4646 12.14H79.1246L75.9046 23.96C75.6913 24.7733 75.3913 25.42 75.0046 25.9C74.6179 26.3933 74.1179 26.7467 73.5046 26.96C72.9046 27.1733 72.1579 27.28 71.2646 27.28H69.4846ZM72.8646 22.76V20.56H75.1846V22.76H72.8646ZM71.9246 22.76L68.4046 12.14H71.2046L74.5446 22.76H71.9246ZM81.0551 23V8.3H83.8951V23H81.0551ZM89.9751 23L85.4951 16.64H88.6751L93.2951 23H89.9751ZM83.0551 18.12V15.82H86.7751C87.2951 15.82 87.7417 15.7133 88.1151 15.5C88.5017 15.2867 88.8017 14.9867 89.0151 14.6C89.2284 14.2133 89.3351 13.7733 89.3351 13.28C89.3351 12.7733 89.2284 12.3267 89.0151 11.94C88.8017 11.5533 88.5017 11.2533 88.1151 11.04C87.7417 10.8267 87.2951 10.72 86.7751 10.72H83.0551V8.3H86.4751C87.6484 8.3 88.6617 8.47333 89.5151 8.82C90.3817 9.16667 91.0484 9.69333 91.5151 10.4C91.9817 11.1067 92.2151 11.9933 92.2151 13.06V13.38C92.2151 14.46 91.9751 15.3467 91.4951 16.04C91.0284 16.7333 90.3684 17.2533 89.5151 17.6C88.6617 17.9467 87.6484 18.12 86.4751 18.12H83.0551ZM99.6943 23.38C98.761 23.38 97.941 23.22 97.2343 22.9C96.541 22.58 95.961 22.1533 95.4943 21.62C95.041 21.0733 94.6943 20.4667 94.4543 19.8C94.2276 19.1333 94.1143 18.4533 94.1143 17.76V17.38C94.1143 16.66 94.2276 15.9667 94.4543 15.3C94.6943 14.62 95.041 14.02 95.4943 13.5C95.961 12.9667 96.5343 12.5467 97.2143 12.24C97.8943 11.92 98.681 11.76 99.5743 11.76C100.748 11.76 101.728 12.02 102.514 12.54C103.314 13.0467 103.914 13.72 104.314 14.56C104.714 15.3867 104.914 16.28 104.914 17.24V18.24H95.2943V16.54H103.174L102.314 17.38C102.314 16.6867 102.214 16.0933 102.014 15.6C101.814 15.1067 101.508 14.7267 101.094 14.46C100.694 14.1933 100.188 14.06 99.5743 14.06C98.961 14.06 98.441 14.2 98.0143 14.48C97.5876 14.76 97.261 15.1667 97.0343 15.7C96.821 16.22 96.7143 16.8467 96.7143 17.58C96.7143 18.26 96.821 18.8667 97.0343 19.4C97.2476 19.92 97.5743 20.3333 98.0143 20.64C98.4543 20.9333 99.0143 21.08 99.6943 21.08C100.374 21.08 100.928 20.9467 101.354 20.68C101.781 20.4 102.054 20.06 102.174 19.66H104.734C104.574 20.4067 104.268 21.06 103.814 21.62C103.361 22.18 102.781 22.6133 102.074 22.92C101.381 23.2267 100.588 23.38 99.6943 23.38ZM107.037 23V12.14H109.237V16.8H109.037C109.037 15.7067 109.177 14.7933 109.457 14.06C109.737 13.3133 110.15 12.7533 110.697 12.38C111.257 11.9933 111.95 11.8 112.777 11.8H112.897C113.737 11.8 114.43 11.9933 114.977 12.38C115.537 12.7533 115.95 13.3133 116.217 14.06C116.497 14.7933 116.637 15.7067 116.637 16.8H115.937C115.937 15.7067 116.077 14.7933 116.357 14.06C116.65 13.3133 117.07 12.7533 117.617 12.38C118.177 11.9933 118.87 11.8 119.697 11.8H119.817C120.657 11.8 121.357 11.9933 121.917 12.38C122.477 12.7533 122.897 13.3133 123.177 14.06C123.47 14.7933 123.617 15.7067 123.617 16.8V23H120.837V16.54C120.837 15.86 120.663 15.32 120.317 14.92C119.97 14.5067 119.477 14.3 118.837 14.3C118.197 14.3 117.683 14.5133 117.297 14.94C116.91 15.3533 116.717 15.9133 116.717 16.62V23H113.937V16.54C113.937 15.86 113.763 15.32 113.417 14.92C113.07 14.5067 112.577 14.3 111.937 14.3C111.297 14.3 110.783 14.5133 110.397 14.94C110.01 15.3533 109.817 15.9133 109.817 16.62V23H107.037ZM131.607 23.38C130.647 23.38 129.801 23.2267 129.067 22.92C128.334 22.6133 127.714 22.2 127.207 21.68C126.701 21.1467 126.314 20.5467 126.047 19.88C125.794 19.2133 125.667 18.52 125.667 17.8V17.38C125.667 16.6333 125.801 15.9267 126.067 15.26C126.347 14.58 126.741 13.98 127.247 13.46C127.767 12.9267 128.394 12.5133 129.127 12.22C129.861 11.9133 130.687 11.76 131.607 11.76C132.527 11.76 133.354 11.9133 134.087 12.22C134.821 12.5133 135.441 12.9267 135.947 13.46C136.467 13.98 136.861 14.58 137.127 15.26C137.394 15.9267 137.527 16.6333 137.527 17.38V17.8C137.527 18.52 137.394 19.2133 137.127 19.88C136.874 20.5467 136.494 21.1467 135.987 21.68C135.481 22.2 134.861 22.6133 134.127 22.92C133.394 23.2267 132.554 23.38 131.607 23.38ZM131.607 21C132.287 21 132.861 20.8533 133.327 20.56C133.794 20.2533 134.147 19.8467 134.387 19.34C134.627 18.82 134.747 18.2333 134.747 17.58C134.747 16.9133 134.621 16.3267 134.367 15.82C134.127 15.3 133.767 14.8933 133.287 14.6C132.821 14.2933 132.261 14.14 131.607 14.14C130.954 14.14 130.387 14.2933 129.907 14.6C129.441 14.8933 129.081 15.3 128.827 15.82C128.574 16.3267 128.447 16.9133 128.447 17.58C128.447 18.2333 128.567 18.82 128.807 19.34C129.061 19.8467 129.421 20.2533 129.887 20.56C130.354 20.8533 130.927 21 131.607 21ZM141.707 23L138.307 12.14H141.167L144.427 23H141.707ZM142.527 23V20.72H145.467V23H142.527ZM143.627 23L146.427 12.14H149.107L146.167 23H143.627ZM155.633 23.38C154.699 23.38 153.879 23.22 153.173 22.9C152.479 22.58 151.899 22.1533 151.433 21.62C150.979 21.0733 150.633 20.4667 150.393 19.8C150.166 19.1333 150.053 18.4533 150.053 17.76V17.38C150.053 16.66 150.166 15.9667 150.393 15.3C150.633 14.62 150.979 14.02 151.433 13.5C151.899 12.9667 152.473 12.5467 153.153 12.24C153.833 11.92 154.619 11.76 155.513 11.76C156.686 11.76 157.666 12.02 158.453 12.54C159.253 13.0467 159.853 13.72 160.253 14.56C160.653 15.3867 160.853 16.28 160.853 17.24V18.24H151.233V16.54H159.113L158.253 17.38C158.253 16.6867 158.153 16.0933 157.953 15.6C157.753 15.1067 157.446 14.7267 157.033 14.46C156.633 14.1933 156.126 14.06 155.513 14.06C154.899 14.06 154.379 14.2 153.953 14.48C153.526 14.76 153.199 15.1667 152.973 15.7C152.759 16.22 152.653 16.8467 152.653 17.58C152.653 18.26 152.759 18.8667 152.973 19.4C153.186 19.92 153.513 20.3333 153.953 20.64C154.393 20.9333 154.953 21.08 155.633 21.08C156.313 21.08 156.866 20.9467 157.293 20.68C157.719 20.4 157.993 20.06 158.113 19.66H160.673C160.513 20.4067 160.206 21.06 159.753 21.62C159.299 22.18 158.719 22.6133 158.013 22.92C157.319 23.2267 156.526 23.38 155.633 23.38ZM162.975 23V12.14H165.175V16.74H165.115C165.115 15.18 165.448 14 166.115 13.2C166.782 12.4 167.762 12 169.055 12H169.455V14.42H168.695C167.762 14.42 167.035 14.6733 166.515 15.18C166.008 15.6733 165.755 16.3933 165.755 17.34V23H162.975Z" fill="#0A0A0A"/>
<defs>
<linearGradient id="paint0_linear_52_68" x1="11.6324" y1="28.375" x2="25.0488" y2="16.8307" gradientUnits="userSpaceOnUse">
<stop offset="0.413462" stop-color="#8B5CF6"/>
<stop offset="1" stop-color="#A78BFA"/>
</linearGradient>
<linearGradient id="paint1_linear_52_68" x1="27.802" y1="11.165" x2="19.8758" y2="18.6053" gradientUnits="userSpaceOnUse">
<stop stop-color="#22D3EE"/>
<stop offset="1" stop-color="#A78BFA"/>
</linearGradient>
<clipPath id="clip0_52_68">
<rect width="32" height="32" fill="white"/>
</clipPath>
</defs>
</svg>
